<svg width="225" height="97" viewBox="0 0 225 97" fill="none" xmlns="http://www.w3.org/2000/svg">
<g filter="url(#filter0_d)">
<rect x="8" y="6.99805" width="209" height="80" rx="6" fill="white"/>
</g>
<g clip-path="url(#clip0)">
<path d="M48.6635 56.2611C54.6603 56.2611 59.2954 51.7368 59.2954 46.156C59.2954 40.9273 54.9408 37.735 52.0567 37.735C48.0405 37.735 44.8211 40.5495 44.3624 44.7276C44.2775 45.5014 43.6636 46.1502 42.8845 46.1447C41.5895 46.1354 39.7064 46.1244 38.5145 46.1285C38.0014 46.1303 37.5773 45.7145 37.6025 45.2023C37.7823 41.5786 38.9957 38.1903 41.3094 35.5877C43.8803 32.6956 47.6243 30.998 52.0567 30.998C59.5038 30.998 66.5341 37.7554 66.5341 46.156C66.5341 55.4575 58.8166 62.998 48.8219 62.998C41.6942 62.998 34.5153 58.3464 32.0089 51.8431C31.9998 51.819 31.9977 51.7929 32.0025 51.7676C32.0361 51.5752 32.1023 51.3994 32.1675 51.2264C32.2623 50.9747 32.3551 50.7286 32.3417 50.4452L32.2982 49.5393C32.2883 49.32 32.3439 49.1028 32.458 48.9153C32.5721 48.7277 32.7395 48.5785 32.9388 48.4866L33.3011 48.3181C33.5041 48.2243 33.6816 48.0832 33.8187 47.9066C33.9558 47.73 34.0486 47.5231 34.0893 47.3032C34.2107 46.6389 34.7946 46.156 35.4763 46.156C36.541 46.156 37.4666 46.8629 37.8143 47.868C39.488 52.7055 42.1487 56.2611 48.6635 56.2611Z" fill="#FB6970"/>
<path d="M181.231 42.1752C179.902 42.1752 179.494 41.3843 179.494 40.4913C179.494 39.5473 179.826 38.8073 181.231 38.8073C182.635 38.8073 182.967 39.5473 182.967 40.4913C182.967 41.3841 182.609 42.1752 181.231 42.1752ZM156.989 53.1275V46.5707L155.121 46.5614V45.7981C155.121 44.9667 155.798 44.2939 156.63 44.2981L156.989 44.3001V41.5188L159.977 40.6769V44.2997H162.684V45.0704C162.684 45.2675 162.645 45.4626 162.569 45.6446C162.494 45.8267 162.383 45.9921 162.244 46.1314C162.104 46.2707 161.939 46.3811 161.757 46.4565C161.575 46.5318 161.38 46.5706 161.183 46.5705H159.977V52.7447C159.977 53.6952 160.516 54.029 161.21 54.1438C162.029 54.2789 162.709 54.8707 162.709 55.699V56.8269C159.88 56.8269 156.989 56.7022 156.989 53.1275H156.989Z" fill="#212F4F"/>
<path fill-rule="evenodd" clip-rule="evenodd" d="M98.0407 44.0159C95.0526 43.9393 91.375 45.8273 91.375 50.5475C91.375 55.1908 95.0526 57.0279 98.0407 56.9514C101.105 57.0279 104.757 55.1908 104.757 50.5475C104.757 45.8273 101.105 43.9393 98.0407 44.0159ZM98.0628 54.6338C95.8919 54.6338 94.3518 53.0537 94.3518 50.4515C94.3518 47.9764 95.8929 46.3462 98.0638 46.3462C100.234 46.3462 101.758 47.9732 101.758 50.4479C101.758 53.0504 100.233 54.6338 98.0626 54.6338H98.0628Z" fill="#212F4F"/>
<path d="M112.606 44.0456C115.211 44.0456 117.918 44.7598 117.918 49.8626V56.7004H116.253C115.424 56.7004 114.751 56.0288 114.751 55.2003V49.6076C114.751 47.1839 113.858 46.2654 112.3 46.2654C111.431 46.2654 110.308 46.9287 109.771 47.4644V55.2005C109.771 55.3976 109.732 55.5927 109.657 55.7747C109.581 55.9568 109.471 56.1222 109.331 56.2615C109.192 56.4008 109.027 56.5112 108.844 56.5866C108.662 56.6619 108.467 56.7006 108.27 56.7006H106.758V44.3517H108.443C108.733 44.3517 109.015 44.45 109.242 44.6307C109.47 44.8114 109.629 45.0638 109.695 45.3467C110.461 44.5048 111.457 44.0456 112.606 44.0456ZM121.333 44.3298C121.643 44.3297 121.945 44.4253 122.198 44.6035C122.451 44.7817 122.643 45.0339 122.748 45.3254L125.482 52.9789L128.216 45.3256C128.32 45.0341 128.512 44.7819 128.765 44.6037C129.018 44.4255 129.321 44.3299 129.63 44.33H131.79L127.336 55.7242C127.226 56.0054 127.034 56.247 126.784 56.4172C126.535 56.5875 126.24 56.6785 125.938 56.6784H124.026L119.174 44.3298H121.333Z" fill="#212F4F"/>
<path fill-rule="evenodd" clip-rule="evenodd" d="M143.599 56.0797C142.654 56.4623 140.737 56.9721 138.745 56.9721C135.246 56.9721 132.566 54.9567 132.566 50.4153C132.566 46.3331 135.164 44.1504 138.331 44.1504C142.24 44.1504 143.907 46.7714 143.733 50.3394C143.697 51.0766 143.055 51.6143 142.316 51.6143H135.578C135.731 53.6044 137.187 54.6503 139.102 54.6503C139.855 54.6503 140.645 54.6122 141.593 54.4354C142.598 54.2478 143.599 54.9622 143.599 55.9835V56.0797ZM141.028 49.5222C141.233 47.5695 139.914 46.4978 138.331 46.4978C136.748 46.4978 135.68 47.6852 135.578 49.522H141.028V49.5222Z" fill="#212F4F"/>
<path d="M147.714 44.3555C147.991 44.3554 148.26 44.4484 148.478 44.6196C148.696 44.7909 148.851 45.0304 148.916 45.2997C149.938 44.534 151.215 44.0493 152.108 44.0493C152.185 44.0493 152.671 44.0493 153.437 44.1514V45.4755C153.437 46.1872 152.821 46.7282 152.108 46.7282C151.292 46.7282 150.091 47.0344 149.146 47.5703V56.7041H146.107V44.3553H147.714V44.3555ZM182.764 55.1673V44.3187H181.252C180.423 44.3187 179.751 44.9903 179.751 45.8188V56.6672H181.262C182.092 56.6672 182.764 55.9956 182.764 55.1673ZM186.874 53.1539V46.5969H184.856V45.8261C184.856 44.9977 185.528 44.326 186.358 44.326H186.874V41.5452L189.862 40.7031V44.326H192.569V45.0968C192.569 45.9253 191.897 46.5969 191.067 46.5969H189.862V52.7713C189.862 53.7216 190.401 54.0554 191.096 54.1702C191.914 54.3055 192.594 54.8971 192.594 55.7254V56.8533C189.765 56.8533 186.874 56.7288 186.874 53.1539ZM76.4453 47.9981C76.4643 42.2243 80.8226 38.998 85.0049 38.998C87.3279 38.998 89.4581 39.4982 91.2098 40.7482L90.501 41.7194C90.0269 42.3693 89.1282 42.6275 88.3795 42.3318C87.3229 41.9144 86.3278 41.8263 85.5864 41.8263C82.1644 41.8263 79.5835 44.0228 79.5651 47.9979C79.5835 51.9729 82.1644 54.2012 85.5864 54.2012C86.3278 54.2012 87.3229 54.1131 88.3795 53.6957C89.1282 53.4 90.0269 53.627 90.501 54.2767L91.2098 55.2481C89.4581 56.4981 87.3281 56.9982 85.0049 56.9982C80.8226 56.9982 76.4643 53.7718 76.4453 47.9981ZM166.416 39.0883C167.245 39.0883 167.917 39.7599 167.917 40.5884V47.4654L174.063 39.7502C174.203 39.561 174.385 39.4071 174.595 39.3012C174.805 39.1952 175.037 39.14 175.272 39.1401H178.002L171.054 47.9055L178.002 56.6674H175.272C175.037 56.6674 174.805 56.6122 174.595 56.5063C174.385 56.4003 174.203 56.2465 174.063 56.0572L167.918 48.3442V55.1673C167.918 55.9958 167.245 56.6674 166.416 56.6674H164.827V39.0883H166.416Z" fill="#212F4F"/>
</g>
<defs>
<filter id="filter0_d" x="0" y="0.998047" width="225" height="96" filterUnits="userSpaceOnUse" color-interpolation-filters="sRGB">
<feFlood flood-opacity="0" result="BackgroundImageFix"/>
<feColorMatrix in="SourceAlpha" type="matrix" values="0 0 0 0 0 0 0 0 0 0 0 0 0 0 0 0 0 0 127 0"/>
<feOffset dy="2"/>
<feGaussianBlur stdDeviation="4"/>
<feColorMatrix type="matrix" values="0 0 0 0 0.233472 0 0 0 0 0.269537 0 0 0 0 0.449861 0 0 0 0.08 0"/>
<feBlend mode="normal" in2="BackgroundImageFix" result="effect1_dropShadow"/>
<feBlend mode="normal" in="SourceGraphic" in2="effect1_dropShadow" result="shape"/>
</filter>
<clipPath id="clip0">
<rect width="160.593" height="32" fill="white" transform="translate(32 30.998)"/>
</clipPath>
</defs>
</svg>
