<svg width="225" height="97" viewBox="0 0 225 97" fill="none" xmlns="http://www.w3.org/2000/svg">
<g filter="url(#filter0_d)">
<rect x="8" y="6.99805" width="209" height="80" rx="6" fill="white"/>
</g>
<g clip-path="url(#clip0)">
<path d="M120.167 44.6531H118.208C118.167 44.4927 118.137 44.3067 118.117 44.0956C118.077 43.6847 118.077 43.2709 118.117 42.86C118.137 42.6493 118.167 42.4635 118.208 42.3022H123.09V57.7638C122.846 57.8063 122.599 57.8363 122.352 57.8538C122.106 57.8726 121.86 57.8826 121.613 57.8836C121.377 57.8821 121.141 57.8722 120.905 57.8538C120.658 57.8362 120.412 57.806 120.167 57.7634V44.6524V44.6528L120.167 44.6531ZM137.165 48.5414C137.165 47.9786 137.089 47.4413 136.939 46.9285C136.788 46.4164 136.567 45.9695 136.276 45.5875C135.984 45.2061 135.613 44.8994 135.161 44.6685C134.709 44.4374 134.171 44.3217 133.548 44.3217C132.323 44.3217 131.383 44.6939 130.73 45.4371C130.077 46.1803 129.681 47.215 129.54 48.5414H137.165H137.165ZM129.51 50.7715C129.55 52.4593 129.987 53.6952 130.821 54.4784C131.654 55.2619 132.885 55.6543 134.513 55.6543C135.939 55.6543 137.295 55.4028 138.581 54.9005C138.742 55.2019 138.872 55.5686 138.973 56.0006C139.071 56.4212 139.132 56.8499 139.153 57.2814C138.491 57.5634 137.762 57.7734 136.969 57.9144C136.174 58.0547 135.296 58.1254 134.332 58.1254C132.925 58.1254 131.719 57.9289 130.715 57.5375C129.71 57.1452 128.881 56.5926 128.228 55.8797C127.575 55.1666 127.098 54.3226 126.797 53.3479C126.495 52.3737 126.344 51.3036 126.344 50.1383C126.344 48.993 126.49 47.9229 126.781 46.9281C127.072 45.9341 127.52 45.07 128.122 44.3366C128.725 43.6029 129.484 43.0205 130.398 42.5885C131.312 42.1565 132.392 41.9402 133.638 41.9402C134.703 41.9402 135.637 42.1213 136.441 42.4829C137.244 42.8444 137.918 43.3418 138.46 43.9747C139.003 44.6078 139.415 45.3613 139.696 46.2349C139.977 47.1092 140.118 48.0584 140.118 49.0834C140.118 49.3648 140.107 49.661 140.088 49.9723C140.071 50.2387 140.051 50.5049 140.027 50.7709H129.509L129.509 50.7713L129.51 50.7715ZM143.405 42.3022C143.615 42.2641 143.826 42.234 144.038 42.212C144.238 42.1923 144.45 42.1821 144.671 42.1821C144.892 42.1821 145.113 42.1923 145.334 42.212C145.555 42.2324 145.756 42.2626 145.937 42.3022C145.997 42.6037 146.057 43.001 146.117 43.4927C146.177 43.9851 146.208 44.4017 146.208 44.7435C146.63 44.0606 147.187 43.4674 147.88 42.965C148.573 42.463 149.462 42.2115 150.547 42.2115C150.708 42.2115 150.874 42.2169 151.045 42.2269C151.191 42.2348 151.337 42.2496 151.482 42.2717C151.522 42.4528 151.552 42.644 151.572 42.8446C151.592 43.0453 151.602 43.2565 151.602 43.4773C151.602 43.7186 151.587 43.97 151.557 44.2307C151.528 44.4826 151.493 44.7338 151.452 44.984C151.289 44.9439 151.122 44.9237 150.954 44.9238H150.547C150.005 44.9238 149.487 44.9992 148.995 45.1497C148.502 45.3006 148.06 45.5669 147.669 45.9483C147.277 46.3303 146.966 46.8528 146.735 47.5159C146.503 48.179 146.388 49.033 146.388 50.0776V57.7634C146.144 57.8058 145.897 57.8361 145.65 57.8536C145.379 57.8737 145.132 57.8835 144.911 57.8835C144.665 57.8825 144.419 57.8725 144.173 57.8536C143.916 57.8349 143.659 57.8048 143.404 57.7635V42.3024L143.405 42.3022ZM122.252 34.0464C122.252 34.4072 122.187 34.7649 122.06 35.1025C121.722 35.2297 121.365 35.2949 121.004 35.295H120.999C120.638 35.295 120.281 35.2299 119.943 35.1027C119.816 34.765 119.75 34.4071 119.75 34.0463V34.0416C119.75 33.6698 119.819 33.3137 119.942 32.9851C120.28 32.8578 120.638 32.7926 120.999 32.7929H121.003C121.375 32.7929 121.731 32.8611 122.059 32.9851C122.187 33.3228 122.252 33.6807 122.252 34.0416V34.0463H122.252L122.252 34.0464ZM125.935 33.2101H123.015L125.08 31.1452C124.755 30.6892 124.356 30.2907 123.9 29.9662L121.835 32.0311V29.1107C121.561 29.0645 121.283 29.0412 121.004 29.041H120.999C120.716 29.041 120.438 29.0652 120.168 29.1107V32.0311L118.102 29.966C117.875 30.1279 117.661 30.3086 117.464 30.5062L117.463 30.5071C117.266 30.7045 117.085 30.918 116.923 31.1454L118.989 33.2101H116.068C116.068 33.2101 115.998 33.7587 115.998 34.0423V34.0458C115.998 34.3294 116.023 34.6073 116.068 34.8779H118.989L116.923 36.9425C117.248 37.3984 117.647 37.797 118.103 38.1218L120.168 36.0571V38.9776C120.438 39.0229 120.715 39.0468 120.998 39.0471H121.005C121.283 39.0469 121.561 39.0236 121.835 38.9776V36.0571L123.9 38.1223C124.128 37.9602 124.342 37.7796 124.539 37.5821H124.54C124.737 37.3845 124.917 37.1709 125.079 36.9434L123.014 34.878H125.935C125.981 34.6077 126.004 34.3307 126.004 34.0477V34.0405C126.004 33.7622 125.981 33.4847 125.935 33.2104V33.2101H125.935ZM73 57.342L81.1376 44.6833H73.9643C73.9042 44.3217 73.8742 43.9202 73.8742 43.478C73.8742 43.0562 73.9047 42.664 73.9649 42.3021H85.5682L85.7192 42.6946L77.5214 55.383H85.2065C85.2667 55.7849 85.2971 56.1965 85.2971 56.6183C85.2971 57.0207 85.2669 57.4023 85.2067 57.7638H73.1509L73 57.3416V57.342ZM96.478 50.5C96.1766 50.4602 95.7948 50.4205 95.3327 50.3797C94.8706 50.34 94.4788 50.3195 94.1578 50.3195C92.9118 50.3195 91.9624 50.5506 91.3099 51.0128C90.6564 51.4753 90.3305 52.1782 90.3305 53.1225C90.3305 53.7252 90.4405 54.1975 90.6617 54.5389C90.8824 54.881 91.1589 55.1416 91.4905 55.3226C91.8222 55.5034 92.1885 55.614 92.5901 55.6543C92.9918 55.6944 93.3738 55.7143 93.7354 55.7143C94.1976 55.7143 94.6747 55.6892 95.167 55.6389C95.6591 55.5891 96.0961 55.5134 96.4781 55.413V50.5H96.478ZM96.478 47.5769C96.478 46.391 96.1766 45.5672 95.574 45.105C94.971 44.6428 94.0971 44.4118 92.9519 44.4118C92.2481 44.4118 91.5905 44.4674 90.9778 44.5778C90.3716 44.6866 89.7726 44.8324 89.1841 45.0143C88.8021 44.3512 88.6119 43.5581 88.6119 42.6333C89.2942 42.4126 90.0475 42.2419 90.8717 42.1213C91.6955 42.0005 92.489 41.9402 93.2529 41.9402C95.262 41.9402 96.7889 42.3976 97.8339 43.3118C98.8783 44.2267 99.4012 45.6883 99.4012 47.6972V57.3719C98.6976 57.5326 97.8439 57.6983 96.8394 57.8692C95.8237 58.0407 94.7953 58.1264 93.7652 58.1254C92.7808 58.1254 91.8914 58.0353 91.0981 57.8544C90.3042 57.6731 89.6311 57.3824 89.0786 56.98C88.5256 56.5785 88.0992 56.066 87.7974 55.4433C87.4962 54.8203 87.3455 54.067 87.3455 53.1827C87.3455 52.319 87.5212 51.5604 87.8729 50.907C88.2184 50.2615 88.7084 49.7046 89.3047 49.2796C89.9074 48.8482 90.6005 48.5263 91.3842 48.3156C92.168 48.1045 92.9915 47.9989 93.8555 47.9989C94.4984 47.9989 95.0259 48.0143 95.4379 48.0445C95.8495 48.0743 96.1963 48.1095 96.4777 48.1498V47.5771L96.478 47.5769ZM105.64 55.2316C106.02 55.3721 106.414 55.4732 106.815 55.5331C107.217 55.5936 107.739 55.6236 108.383 55.6236C109.106 55.6236 109.769 55.5084 110.371 55.2773C110.975 55.0467 111.492 54.6897 111.924 54.2072C112.356 53.7252 112.697 53.1178 112.948 52.3836C113.199 51.6507 113.325 50.782 113.325 49.7769C113.325 48.1696 113.029 46.8937 112.436 45.9492C111.843 45.0051 110.874 44.5328 109.528 44.5328C109.026 44.5328 108.543 44.623 108.082 44.8041C107.619 44.9849 107.207 45.2563 106.846 45.6178C106.484 45.9794 106.193 46.4369 105.972 46.9893C105.75 47.5423 105.64 48.1998 105.64 48.9635V55.232V55.2317L105.64 55.2316ZM102.656 42.3019C102.861 42.2617 103.066 42.2316 103.274 42.2117C103.489 42.1917 103.706 42.1818 103.922 42.1818C104.122 42.1818 104.333 42.1922 104.555 42.2117C104.775 42.2321 104.986 42.2624 105.188 42.3021C105.207 42.3429 105.233 42.4679 105.263 42.679C105.293 42.8902 105.323 43.1161 105.353 43.3569C105.384 43.5982 105.414 43.8298 105.444 44.0502C105.474 44.2715 105.489 44.4122 105.489 44.4724C105.69 44.1513 105.931 43.8395 106.212 43.5382C106.494 43.2366 106.831 42.9655 107.222 42.7246C107.614 42.4833 108.056 42.2926 108.548 42.1518C109.04 42.0112 109.588 41.9403 110.191 41.9403C111.095 41.9403 111.934 42.0913 112.708 42.3928C113.481 42.6946 114.143 43.161 114.696 43.7941C115.249 44.4272 115.68 45.231 115.992 46.2052C116.303 47.1805 116.459 48.3306 116.459 49.6564C116.459 52.3085 115.741 54.3836 114.304 55.8802C112.867 57.3773 110.833 58.1254 108.201 58.1254C107.759 58.1254 107.307 58.0952 106.845 58.035C106.382 57.9745 105.981 57.894 105.639 57.794V64.8767C105.385 64.9182 105.128 64.9483 104.871 64.9671C104.6 64.9868 104.353 64.997 104.132 64.997C103.886 64.9959 103.64 64.986 103.394 64.9671C103.146 64.9496 102.9 64.9194 102.656 64.8767V42.3021L102.656 42.3019Z" fill="#FF4A00"/>
</g>
<defs>
<filter id="filter0_d" x="0" y="0.998047" width="225" height="96" filterUnits="userSpaceOnUse" color-interpolation-filters="sRGB">
<feFlood flood-opacity="0" result="BackgroundImageFix"/>
<feColorMatrix in="SourceAlpha" type="matrix" values="0 0 0 0 0 0 0 0 0 0 0 0 0 0 0 0 0 0 127 0"/>
<feOffset dy="2"/>
<feGaussianBlur stdDeviation="4"/>
<feColorMatrix type="matrix" values="0 0 0 0 0.233472 0 0 0 0 0.269537 0 0 0 0 0.449861 0 0 0 0.08 0"/>
<feBlend mode="normal" in2="BackgroundImageFix" result="effect1_dropShadow"/>
<feBlend mode="normal" in="SourceGraphic" in2="effect1_dropShadow" result="shape"/>
</filter>
<clipPath id="clip0">
<rect width="78.6026" height="36" fill="white" transform="translate(73 28.998)"/>
</clipPath>
</defs>
</svg>
